<svg width="65" height="65" viewBox="0 0 65 65" fill="none" xmlns="http://www.w3.org/2000/svg">
    <path fill-rule="evenodd" clip-rule="evenodd"
        d="M14.8958 52.8125C14.8958 52.8125 24.3749 48.75 27.0833 46.0417C29.7916 43.3333 21.6666 43.3333 21.6666 29.7917C21.6666 16.25 32.4999 16.25 32.4999 16.25C32.4999 16.25 43.3333 16.25 43.3333 29.7917C43.3333 43.3333 35.2083 43.3333 37.9166 46.0417C40.6249 48.75 50.1041 52.8125 50.1041 52.8125"
        fill="white" />
    <path
        d="M14.8958 52.8125C14.8958 52.8125 24.3749 48.75 27.0833 46.0417C29.7916 43.3333 21.6666 43.3333 21.6666 29.7917C21.6666 16.25 32.4999 16.25 32.4999 16.25C32.4999 16.25 43.3333 16.25 43.3333 29.7917C43.3333 43.3333 35.2083 43.3333 37.9166 46.0417C40.6249 48.75 50.1041 52.8125 50.1041 52.8125"
        stroke="black" stroke-width="2" stroke-linecap="round" />
    <path fill-rule="evenodd" clip-rule="evenodd"
        d="M32.5001 59.5834C47.4578 59.5834 59.5834 47.4578 59.5834 32.5001C59.5834 17.5424 47.4578 5.41675 32.5001 5.41675C17.5424 5.41675 5.41675 17.5424 5.41675 32.5001C5.41675 47.4578 17.5424 59.5834 32.5001 59.5834Z"
        stroke="black" stroke-width="2" />
    <circle cx="52.5" cy="50.5" r="6.5" fill="black" />
    <circle cx="52.5" cy="50.5" r="5.5" fill="#00A3FF" />
    <path d="M55.2084 50.4999H49.7917" stroke="white" stroke-linecap="round" />
    <path d="M52.4999 53.2084V47.7917" stroke="white" stroke-linecap="round" />
</svg>