<svg width="69" height="31" viewBox="0 0 69 31" fill="none" xmlns="http://www.w3.org/2000/svg">
    <path d="M0.835469 1.24H19.7555V5.48H6.11547V13.12H17.8355V17.24H6.11547V25.76H19.8355V30H0.835469V1.24ZM29.943 5.48H21.103V1.24H44.143V5.48H35.223V30H29.943V5.48ZM68.5033 20.56C68.2633 23.52 67.1566 25.9067 65.1833 27.72C63.2366 29.5067 60.5566 30.4 57.1433 30.4C54.7699 30.4 52.7033 29.84 50.9433 28.72C49.1833 27.6 47.8233 26.0133 46.8633 23.96C45.9299 21.9067 45.4633 19.4933 45.4633 16.72V14.52C45.4633 11.7467 45.9433 9.33333 46.9033 7.28C47.8633 5.22667 49.2366 3.64 51.0233 2.52C52.8099 1.4 54.9033 0.839999 57.3033 0.839999C60.6899 0.839999 63.3299 1.74667 65.2233 3.56C67.1166 5.37333 68.2233 7.8 68.5433 10.84H63.2633C63.0766 8.92 62.5299 7.49333 61.6233 6.56C60.7166 5.6 59.2766 5.12 57.3033 5.12C55.1433 5.12 53.5166 5.92 52.4233 7.52C51.3299 9.09333 50.7833 11.4133 50.7833 14.48V16.72C50.7833 22.9867 52.9033 26.12 57.1433 26.12C59.1433 26.12 60.5966 25.6667 61.5033 24.76C62.4366 23.8533 63.0099 22.4533 63.2233 20.56H68.5033Z" fill="black"/>
    </svg>
    