<svg width="35" height="35" viewBox="0 0 35 35" fill="none" xmlns="http://www.w3.org/2000/svg">
    <path d="M7.49513 30.9839H27.5049C30.5666 30.9839 32.1044 29.4604 32.1044 26.4429V8.55711C32.1044 5.53955 30.5666 4.01611 27.5049 4.01611H7.49513C4.44826 4.01611 2.89551 5.52486 2.89551 8.55711V26.4429C2.89551 29.4751 4.44826 30.9839 7.49513 30.9839ZM7.29007 28.6255C5.98632 28.6255 5.25394 27.937 5.25394 26.5747V12.7612C5.25394 11.4135 5.98632 10.7104 7.29007 10.7104H27.6953C28.999 10.7104 29.7461 11.4135 29.7461 12.7612V26.5747C29.7461 27.937 28.999 28.6255 27.6953 28.6255H7.29007ZM14.6289 15.9692H15.4932C16.0059 15.9692 16.1816 15.8227 16.1816 15.3101V14.4458C16.1816 13.9331 16.0059 13.772 15.4932 13.772H14.6289C14.1162 13.772 13.9551 13.9331 13.9551 14.4458V15.3101C13.9551 15.8227 14.1162 15.9692 14.6289 15.9692ZM19.5069 15.9692H20.3564C20.8838 15.9692 21.0449 15.8227 21.0449 15.3101V14.4458C21.0449 13.9331 20.8838 13.772 20.3564 13.772H19.5069C18.9941 13.772 18.8184 13.9331 18.8184 14.4458V15.3101C18.8184 15.8227 18.9941 15.9692 19.5069 15.9692ZM24.3701 15.9692H25.2344C25.7471 15.9692 25.9229 15.8227 25.9229 15.3101V14.4458C25.9229 13.9331 25.7471 13.772 25.2344 13.772H24.3701C23.8574 13.772 23.6816 13.9331 23.6816 14.4458V15.3101C23.6816 15.8227 23.8574 15.9692 24.3701 15.9692ZM9.76563 20.7593H10.6299C11.1426 20.7593 11.3184 20.6128 11.3184 20.1001V19.2359C11.3184 18.7232 11.1426 18.5767 10.6299 18.5767H9.76563C9.25295 18.5767 9.07713 18.7232 9.07713 19.2359V20.1001C9.07713 20.6128 9.25295 20.7593 9.76563 20.7593ZM14.6289 20.7593H15.4932C16.0059 20.7593 16.1816 20.6128 16.1816 20.1001V19.2359C16.1816 18.7232 16.0059 18.5767 15.4932 18.5767H14.6289C14.1162 18.5767 13.9551 18.7232 13.9551 19.2359V20.1001C13.9551 20.6128 14.1162 20.7593 14.6289 20.7593ZM19.5069 20.7593H20.3564C20.8838 20.7593 21.0449 20.6128 21.0449 20.1001V19.2359C21.0449 18.7232 20.8838 18.5767 20.3564 18.5767H19.5069C18.9941 18.5767 18.8184 18.7232 18.8184 19.2359V20.1001C18.8184 20.6128 18.9941 20.7593 19.5069 20.7593ZM24.3701 20.7593H25.2344C25.7471 20.7593 25.9229 20.6128 25.9229 20.1001V19.2359C25.9229 18.7232 25.7471 18.5767 25.2344 18.5767H24.3701C23.8574 18.5767 23.6816 18.7232 23.6816 19.2359V20.1001C23.6816 20.6128 23.8574 20.7593 24.3701 20.7593ZM9.76563 25.564H10.6299C11.1426 25.564 11.3184 25.4028 11.3184 24.8901V24.0259C11.3184 23.5132 11.1426 23.3667 10.6299 23.3667H9.76563C9.25295 23.3667 9.07713 23.5132 9.07713 24.0259V24.8901C9.07713 25.4028 9.25295 25.564 9.76563 25.564ZM14.6289 25.564H15.4932C16.0059 25.564 16.1816 25.4028 16.1816 24.8901V24.0259C16.1816 23.5132 16.0059 23.3667 15.4932 23.3667H14.6289C14.1162 23.3667 13.9551 23.5132 13.9551 24.0259V24.8901C13.9551 25.4028 14.1162 25.564 14.6289 25.564ZM19.5069 25.564H20.3564C20.8838 25.564 21.0449 25.4028 21.0449 24.8901V24.0259C21.0449 23.5132 20.8838 23.3667 20.3564 23.3667H19.5069C18.9941 23.3667 18.8184 23.5132 18.8184 24.0259V24.8901C18.8184 25.4028 18.9941 25.564 19.5069 25.564Z" fill="black"/>
    </svg>
    