<svg width="30" height="30" viewBox="0 0 30 30" fill="none" xmlns="http://www.w3.org/2000/svg">
    <path fill-rule="evenodd" clip-rule="evenodd" d="M14.9199 2.02585e-07H15.0801C18.3011 -1.37509e-05 20.8253 -2.77577e-05 22.7948 0.264768C24.8107 0.5358 26.4015 1.10139 27.6501 2.34996C28.8987 3.59853 29.4642 5.18926 29.7353 7.20518C30 9.17468 30 11.6989 30 14.9199V15.0801C30 18.3011 30 20.8253 29.7353 22.7948C29.4642 24.8107 28.8987 26.4015 27.6501 27.6501C26.4015 28.8987 24.8107 29.4642 22.7948 29.7353C20.8253 30 18.3011 30 15.0801 30H14.9199C11.6989 30 9.17468 30 7.20518 29.7353C5.18926 29.4642 3.59853 28.8987 2.34996 27.6501C1.10139 26.4015 0.5358 24.8107 0.264768 22.7948C-2.77577e-05 20.8253 -1.37509e-05 18.3011 2.02585e-07 15.0801V14.9199C-1.37509e-05 11.6989 -2.77577e-05 9.17468 0.264768 7.20518C0.5358 5.18926 1.10139 3.59853 2.34996 2.34996C3.59853 1.10139 5.18926 0.5358 7.20518 0.264768C9.17468 -2.77577e-05 11.6989 -1.37509e-05 14.9199 2.02585e-07ZM7.48407 2.33912C5.70024 2.57895 4.62481 3.03508 3.82995 3.82995C3.03508 4.62481 2.57895 5.70024 2.33912 7.48407C2.09524 9.29799 2.09302 11.6815 2.09302 15C2.09302 18.3184 2.09524 20.702 2.33912 22.5159C2.57895 24.2997 3.03508 25.3751 3.82995 26.17C4.62481 26.965 5.70024 27.4211 7.48407 27.6608C9.29799 27.9047 11.6815 27.907 15 27.907C18.3184 27.907 20.702 27.9047 22.5159 27.6608C24.2997 27.4211 25.3751 26.965 26.17 26.17C26.965 25.3751 27.4211 24.2997 27.6608 22.5159C27.9047 20.702 27.907 18.3184 27.907 15C27.907 11.6815 27.9047 9.29799 27.6608 7.48407C27.4211 5.70024 26.965 4.62481 26.17 3.82995C25.3751 3.03508 24.2997 2.57895 22.5159 2.33912C20.702 2.09524 18.3184 2.09302 15 2.09302C11.6815 2.09302 9.29799 2.09524 7.48407 2.33912ZM12.931 7.26544C13.3496 7.66404 13.3658 8.32645 12.9671 8.74499L8.98041 12.931C8.78288 13.1385 8.509 13.2558 8.2226 13.2558C7.93619 13.2558 7.66229 13.1385 7.46477 12.931L5.87009 11.2566C5.47148 10.8381 5.48764 10.1757 5.90618 9.77707C6.32471 9.37846 6.98713 9.39462 7.38572 9.81315L8.2226 10.6919L11.4515 7.30153C11.8501 6.88299 12.5125 6.86683 12.931 7.26544ZM15.3488 10.814C15.3488 10.236 15.8174 9.76744 16.3953 9.76744H23.3721C23.95 9.76744 24.4186 10.236 24.4186 10.814C24.4186 11.3919 23.95 11.8605 23.3721 11.8605H16.3953C15.8174 11.8605 15.3488 11.3919 15.3488 10.814ZM12.931 17.0329C13.3496 17.4315 13.3658 18.0939 12.9671 18.5124L8.98041 22.6984C8.78288 22.9059 8.509 23.0233 8.2226 23.0233C7.93619 23.0233 7.66229 22.9059 7.46477 22.6984L5.87009 21.024C5.47148 20.6055 5.48764 19.9432 5.90618 19.5445C6.32471 19.1459 6.98713 19.162 7.38572 19.5807L8.2226 20.4593L11.4515 17.069C11.8501 16.6504 12.5125 16.6342 12.931 17.0329ZM15.3488 20.5814C15.3488 20.0034 15.8174 19.5349 16.3953 19.5349H23.3721C23.95 19.5349 24.4186 20.0034 24.4186 20.5814C24.4186 21.1593 23.95 21.6279 23.3721 21.6279H16.3953C15.8174 21.6279 15.3488 21.1593 15.3488 20.5814Z" fill="black"/>
    </svg>
    