<svg width="10" height="10" viewBox="0 0 10 10" fill="none" xmlns="http://www.w3.org/2000/svg">
    <path d="M4.99976 5.83333C4.99976 5 5.65643 4.86054 5.88255 4.63498C6.1094 4.40869 6.24976 4.09574 6.24976 3.75C6.24976 3.05964 5.69012 2.5 4.99976 2.5C4.62646 2.5 4.29138 2.66364 4.06234 2.92309C3.95643 3.04306 3.8732 3.18352 3.81934 3.33775" stroke="#929292" stroke-linecap="round"/>
    <path fill-rule="evenodd" clip-rule="evenodd" d="M5.00016 7.49984C5.23028 7.49984 5.41683 7.31329 5.41683 7.08317C5.41683 6.85305 5.23028 6.6665 5.00016 6.6665C4.77004 6.6665 4.5835 6.85305 4.5835 7.08317C4.5835 7.31329 4.77004 7.49984 5.00016 7.49984Z" fill="#929292" stroke="#929292"/>
    <path fill-rule="evenodd" clip-rule="evenodd" d="M5.00016 9.16683C7.30135 9.16683 9.16683 7.30135 9.16683 5.00016C9.16683 2.69898 7.30135 0.833496 5.00016 0.833496C2.69898 0.833496 0.833496 2.69898 0.833496 5.00016C0.833496 7.30135 2.69898 9.16683 5.00016 9.16683Z" stroke="#929292"/>
    </svg>
    