<svg width="19" height="19" viewBox="0 0 19 19" fill="none" xmlns="http://www.w3.org/2000/svg">
    <g clip-path="url(#clip0_110_4504)">
        <path d="M11.875 11.875H15.4375V10.6875H11.875V11.875Z" fill="black" />
        <path d="M14.25 16.625H17.8125V15.4375H14.25V16.625Z" fill="black" />
        <path d="M13.0625 14.25H16.625V13.0625H13.0625V14.25Z" fill="black" />
        <path
            d="M10.0954 11.875C10.0912 11.374 9.95748 10.8826 9.70735 10.4485C9.45721 10.0143 9.0991 9.65226 8.66777 9.39734L13.0624 1.78125L12.0347 1.1875L7.53656 8.98106C6.98441 8.85767 6.41013 8.8747 5.86626 9.03059C5.32239 9.18648 4.82629 9.47625 4.42335 9.87341C2.20059 12.0175 2.37272 17.03 2.38085 17.2425C2.38699 17.3958 2.45224 17.5408 2.56293 17.6471C2.67363 17.7533 2.82116 17.8126 2.9746 17.8125H11.8756C12.0002 17.8125 12.1217 17.7733 12.2228 17.7004C12.3239 17.6276 12.3995 17.5247 12.4389 17.4065C12.4783 17.2883 12.4795 17.1607 12.4424 17.0417C12.4052 16.9228 12.3316 16.8185 12.2319 16.7438C10.1302 15.1667 10.0954 11.9069 10.0954 11.875ZM7.08335 10.092C7.55857 10.0972 8.01349 10.2855 8.35346 10.6176C8.69342 10.9496 8.89226 11.4 8.9086 11.875C8.9086 11.8976 8.90972 11.9985 8.91857 12.1533L5.4158 10.5956C5.64652 10.4053 5.91275 10.2628 6.19902 10.1764C6.48529 10.0899 6.7859 10.0613 7.08335 10.092ZM9.17299 16.625C8.69853 16.1417 8.39614 15.5158 8.31241 14.8438H7.12491C7.16749 15.4757 7.36496 16.0874 7.6999 16.625H6.37982C6.13561 15.8544 5.98703 15.0568 5.93741 14.25H4.74991C4.78824 15.0544 4.9208 15.8515 5.14487 16.625H3.56241C3.58082 15.5346 3.7346 13.1266 4.63277 11.5468L9.10548 13.5359C9.32061 14.6517 9.77899 15.7064 10.448 16.625H9.17299Z"
            fill="black" />
    </g>
    <defs>
        <clipPath id="clip0_110_4504">
            <rect width="19" height="19" fill="white" />
        </clipPath>
    </defs>
</svg>
    