<svg width="36" height="44" viewBox="0 0 36 44" fill="none" xmlns="http://www.w3.org/2000/svg">
    <path d="M16.5 12.8333L16.5 13.3333C16.6151 13.3333 16.7266 13.2936 16.8158 13.2209L16.5 12.8333ZM25.5 5.49996L26 5.49996C26 5.30694 25.8889 5.13117 25.7146 5.04834C25.5402 4.96551 25.3338 4.99042 25.1842 5.11234L25.5 5.49996ZM25.5 12.8333L25 12.8333C25 13.1094 25.2239 13.3333 25.5 13.3333L25.5 12.8333ZM7.5 12.3333C5.567 12.3333 4 13.9003 4 15.8333L5 15.8333C5 14.4526 6.11929 13.3333 7.5 13.3333L7.5 12.3333ZM16.5 12.3333L7.5 12.3333L7.5 13.3333L16.5 13.3333L16.5 12.3333ZM25.1842 5.11234L16.1842 12.4457L16.8158 13.2209L25.8158 5.88757L25.1842 5.11234ZM26 12.8333L26 5.49996L25 5.49996L25 12.8333L26 12.8333ZM28.5 12.3333L25.5 12.3333L25.5 13.3333L28.5 13.3333L28.5 12.3333ZM32 15.8333C32 13.9003 30.433 12.3333 28.5 12.3333L28.5 13.3333C29.8807 13.3333 31 14.4526 31 15.8333L32 15.8333ZM32 33.6666L32 15.8333L31 15.8333L31 33.6666L32 33.6666ZM28.5 37.1666C30.433 37.1666 32 35.5996 32 33.6666L31 33.6666C31 35.0473 29.8807 36.1666 28.5 36.1666L28.5 37.1666ZM7.5 37.1666L28.5 37.1666L28.5 36.1666L7.5 36.1666L7.5 37.1666ZM4 33.6666C4 35.5996 5.56701 37.1666 7.5 37.1666L7.5 36.1666C6.11929 36.1666 5 35.0473 5 33.6666L4 33.6666ZM4 15.8333L4 33.6666L5 33.6666L5 15.8333L4 15.8333Z" fill="#FF3333"/>
    <ellipse cx="8.25" cy="7.875" rx="8.25" ry="7.875" transform="matrix(-1 0 0 1 26.3501 16.5751)" fill="#FF3333"/>
    <path fill-rule="evenodd" clip-rule="evenodd" d="M20.5749 22.875C20.1193 22.875 19.7499 22.5225 19.7499 22.0875C19.7499 21.6526 20.1193 21.3 20.5749 21.3C21.0305 21.3 21.3999 21.6526 21.3999 22.0875C21.3999 22.5225 21.0305 22.875 20.5749 22.875Z" fill="white" stroke="white"/>
    <path fill-rule="evenodd" clip-rule="evenodd" d="M15.625 22.875C15.1693 22.875 14.8 22.5225 14.8 22.0875C14.8 21.6526 15.1693 21.3 15.625 21.3C16.0806 21.3 16.45 21.6526 16.45 22.0875C16.45 22.5225 16.0806 22.875 15.625 22.875Z" fill="white" stroke="white"/>
    <path opacity="0.9" d="M21.3999 27.6C21.3999 27.6 19.7499 26.8125 18.1025 26.8134C16.4499 26.8125 14.7999 27.6 14.7999 27.6" stroke="white" stroke-width="2" stroke-linecap="round"/>
    <path fill-rule="evenodd" clip-rule="evenodd" d="M18.1001 32.325C13.5437 32.325 9.8501 28.7992 9.8501 24.45C9.8501 20.1007 13.5437 16.575 18.1001 16.575C22.6564 16.575 26.3501 20.1007 26.3501 24.45C26.3501 28.7992 22.6564 32.325 18.1001 32.325Z" stroke="#FF3333"/>
</svg>
