<svg width="36" height="44" viewBox="0 0 36 44" fill="none" xmlns="http://www.w3.org/2000/svg">
    <path d="M19.5 12.8333L19.5 13.3333C19.3849 13.3333 19.2734 13.2936 19.1842 13.2209L19.5 12.8333ZM10.5 5.49996L10 5.49996C10 5.30694 10.1111 5.13117 10.2854 5.04834C10.4598 4.96551 10.6662 4.99042 10.8158 5.11234L10.5 5.49996ZM10.5 12.8333L11 12.8333C11 13.1094 10.7761 13.3333 10.5 13.3333L10.5 12.8333ZM28.5 12.3333C30.433 12.3333 32 13.9003 32 15.8333L31 15.8333C31 14.4526 29.8807 13.3333 28.5 13.3333L28.5 12.3333ZM19.5 12.3333L28.5 12.3333L28.5 13.3333L19.5 13.3333L19.5 12.3333ZM10.8158 5.11234L19.8158 12.4457L19.1842 13.2209L10.1842 5.88757L10.8158 5.11234ZM10 12.8333L10 5.49996L11 5.49996L11 12.8333L10 12.8333ZM7.5 12.3333L10.5 12.3333L10.5 13.3333L7.5 13.3333L7.5 12.3333ZM4 15.8333C4 13.9003 5.567 12.3333 7.5 12.3333L7.5 13.3333C6.11929 13.3333 5 14.4526 5 15.8333L4 15.8333ZM4 33.6666L4 15.8333L5 15.8333L5 33.6666L4 33.6666ZM7.5 37.1666C5.567 37.1666 4 35.5996 4 33.6666L5 33.6666C5 35.0473 6.11929 36.1666 7.5 36.1666L7.5 37.1666ZM28.5 37.1666L7.5 37.1666L7.5 36.1666L28.5 36.1666L28.5 37.1666ZM32 33.6666C32 35.5996 30.433 37.1666 28.5 37.1666L28.5 36.1666C29.8807 36.1666 31 35.0473 31 33.6666L32 33.6666ZM32 15.8333L32 33.6666L31 33.6666L31 15.8333L32 15.8333Z" fill="#FFD700"/>
    <ellipse cx="18.3998" cy="24.95" rx="8.66667" ry="8.29167" fill="#FFDB58"/>
    <path fill-rule="evenodd" clip-rule="evenodd" d="M15.8 23.2916C16.2787 23.2916 16.6667 22.9204 16.6667 22.4625C16.6667 22.0045 16.2787 21.6333 15.8 21.6333C15.3214 21.6333 14.9333 22.0045 14.9333 22.4625C14.9333 22.9204 15.3214 23.2916 15.8 23.2916Z" fill="white" stroke="black" stroke-width="0.1"/>
    <path fill-rule="evenodd" clip-rule="evenodd" d="M21 23.2916C21.4786 23.2916 21.8666 22.9204 21.8666 22.4625C21.8666 22.0045 21.4786 21.6333 21 21.6333C20.5213 21.6333 20.1333 22.0045 20.1333 22.4625C20.1333 22.9204 20.5213 23.2916 21 23.2916Z" fill="white" stroke="black" stroke-width="0.1"/>
    <path opacity="0.9" d="M14.9333 27.4376H21.8667" stroke="black" stroke-width="0.1" stroke-linecap="round"/>
</svg>
