<svg width="33" height="41" viewBox="0 0 33 41" fill="none" xmlns="http://www.w3.org/2000/svg">
    <path d="M28.875 14.9583L28.375 14.9583L28.875 14.9583ZM17.875 11.9583L17.875 12.4583C17.7585 12.4583 17.6457 12.4176 17.5561 12.3434L17.875 11.9583ZM9.625 5.12496L9.125 5.12496C9.125 4.93122 9.23692 4.75492 9.41225 4.67248C9.58757 4.59004 9.79474 4.61631 9.94395 4.73989L9.625 5.12496ZM9.625 11.9583L10.125 11.9583C10.125 12.2344 9.90114 12.4583 9.625 12.4583L9.625 11.9583ZM28.875 31.1666L29.375 31.1666L28.875 31.1666ZM25.875 11.4583C27.808 11.4583 29.375 13.0253 29.375 14.9583L28.375 14.9583C28.375 13.5776 27.2557 12.4583 25.875 12.4583L25.875 11.4583ZM17.875 11.4583L25.875 11.4583L25.875 12.4583L17.875 12.4583L17.875 11.4583ZM9.94395 4.73989L18.1939 11.5732L17.5561 12.3434L9.30606 5.51002L9.94395 4.73989ZM9.125 11.9583L9.125 5.12496L10.125 5.12496L10.125 11.9583L9.125 11.9583ZM7.125 11.4583L9.625 11.4583L9.625 12.4583L7.125 12.4583L7.125 11.4583ZM3.625 14.9583C3.625 13.0253 5.192 11.4583 7.125 11.4583L7.125 12.4583C5.74429 12.4583 4.625 13.5776 4.625 14.9583L3.625 14.9583ZM3.625 31.1666L3.625 14.9583L4.625 14.9583L4.625 31.1666L3.625 31.1666ZM7.125 34.6666C5.192 34.6666 3.625 33.0996 3.625 31.1666L4.625 31.1666C4.625 32.5473 5.74429 33.6666 7.125 33.6666L7.125 34.6666ZM25.875 34.6666L7.125 34.6666L7.125 33.6666L25.875 33.6666L25.875 34.6666ZM29.375 31.1666C29.375 33.0996 27.808 34.6666 25.875 34.6666L25.875 33.6666C27.2557 33.6666 28.375 32.5473 28.375 31.1666L29.375 31.1666ZM29.375 14.9583L29.375 31.1666L28.375 31.1666L28.375 14.9583L29.375 14.9583Z" fill="#66FF66"/>
    <ellipse cx="16.6766" cy="22.9302" rx="8.33823" ry="7.95922" fill="#66FF66"/>
    <path d="M13.0852 24.3903C13.6755 25.6719 15.139 26.5782 16.6765 26.5782C18.2073 26.5782 19.668 25.6696 20.2634 24.3935" stroke="white" stroke-linecap="round"/>
    <path fill-rule="evenodd" clip-rule="evenodd" d="M14.3837 21.471C14.8059 21.471 15.1481 21.1444 15.1481 20.7414C15.1481 20.3385 14.8059 20.0118 14.3837 20.0118C13.9616 20.0118 13.6194 20.3385 13.6194 20.7414C13.6194 21.1444 13.9616 21.471 14.3837 21.471Z" fill="white" stroke="white"/>
    <path fill-rule="evenodd" clip-rule="evenodd" d="M18.9697 21.471C19.3918 21.471 19.734 21.1444 19.734 20.7414C19.734 20.3385 19.3918 20.0118 18.9697 20.0118C18.5475 20.0118 18.2053 20.3385 18.2053 20.7414C18.2053 21.1444 18.5475 21.471 18.9697 21.471Z" fill="white" stroke="white"/>
    <path fill-rule="evenodd" clip-rule="evenodd" d="M16.6766 30.2262C20.8979 30.2262 24.32 26.9597 24.32 22.9302C24.32 18.9008 20.8979 15.6343 16.6766 15.6343C12.4553 15.6343 9.0332 18.9008 9.0332 22.9302C9.0332 26.9597 12.4553 30.2262 16.6766 30.2262Z" stroke="#66FF66"/>
</svg>
