<svg width="30" height="30" viewBox="0 0 30 30" fill="none" xmlns="http://www.w3.org/2000/svg">
    <path d="M15 10V13.75M15 13.75V17.5M15 13.75H18.75M15 13.75H11.25" stroke="black" stroke-width="2" stroke-linecap="round"/>
    <path d="M17.5 23.75C22.214 23.75 24.5711 23.75 26.0355 22.2855C27.5 20.8211 27.5 18.464 27.5 13.75C27.5 9.03595 27.5 6.67894 26.0355 5.21446C24.5711 3.75 22.214 3.75 17.5 3.75H12.5C7.78595 3.75 5.42894 3.75 3.96446 5.21446C2.5 6.67894 2.5 9.03595 2.5 13.75C2.5 18.464 2.5 20.8211 3.96446 22.2855C4.78094 23.102 5.87486 23.4633 7.5 23.6231" stroke="black" stroke-width="2" stroke-linecap="round" stroke-linejoin="round"/>
    <path d="M17.5001 23.75C15.9544 23.75 14.2528 24.374 12.6983 25.1813C10.2016 26.4776 8.95318 27.1259 8.338 26.7129C7.72282 26.2998 7.83925 25.0189 8.07214 22.4571L8.12507 21.875" stroke="black" stroke-width="2" stroke-linecap="round"/>
    </svg>
    