<svg width="24" height="20" viewBox="0 0 24 20" fill="none" xmlns="http://www.w3.org/2000/svg">
    <path d="M3.15403 19.1552H20.4609C22.5502 19.1552 23.615 18.1105 23.615 16.0413V5.52459C23.615 3.4554 22.5502 2.42079 20.4609 2.42079H18.1104C17.327 2.42079 17.0859 2.26007 16.6339 1.75783L15.8203 0.8538C15.3282 0.301371 14.8159 0 13.7712 0H9.77344C8.73883 0 8.22656 0.301371 7.72436 0.8538L6.91071 1.75783C6.46877 2.25 6.21767 2.42079 5.43416 2.42079H3.15403C1.06474 2.42079 0 3.4554 0 5.52459V16.0413C0 18.1105 1.06474 19.1552 3.15403 19.1552ZM3.18416 17.538C2.18974 17.538 1.61721 17.0056 1.61721 15.9609V5.61497C1.61721 4.57033 2.18974 4.03796 3.18416 4.03796H5.83594C6.73997 4.03796 7.22211 3.86721 7.72436 3.30471L8.51786 2.42079C9.09043 1.77793 9.38169 1.61721 10.2757 1.61721H13.269C14.163 1.61721 14.4543 1.77793 15.0268 2.42079L15.8203 3.30471C16.3226 3.86721 16.8047 4.03796 17.7087 4.03796H20.4309C21.4253 4.03796 21.9978 4.57033 21.9978 5.61497V15.9609C21.9978 17.0056 21.4253 17.538 20.4309 17.538H3.18416ZM11.8025 15.9409C14.846 15.9409 17.2869 13.5 17.2869 10.4464C17.2869 7.39286 14.856 4.95206 11.8025 4.95206C8.769 4.95206 6.32816 7.39286 6.32816 10.4464C6.32816 13.5 8.769 15.9409 11.8025 15.9409ZM19.0246 7.99556C19.7076 7.99556 20.2701 7.44309 20.2701 6.76007C20.2701 6.06699 19.7076 5.51451 19.0246 5.51451C18.3415 5.51451 17.779 6.06699 17.779 6.76007C17.779 7.44309 18.3415 7.99556 19.0246 7.99556ZM11.8025 14.4141C9.6228 14.4141 7.84487 12.6462 7.84487 10.4464C7.84487 8.24666 9.61273 6.4788 11.8025 6.4788C13.9922 6.4788 15.7701 8.24666 15.7701 10.4464C15.7701 12.6462 13.9922 14.4141 11.8025 14.4141Z" fill="black"/>
    </svg>
    