<svg width="35" height="35" viewBox="0 0 35 35" fill="none" xmlns="http://www.w3.org/2000/svg">
    <path fill-rule="evenodd" clip-rule="evenodd" d="M17.5001 5.46875C12.4309 5.46875 8.3855 9.43144 8.3855 14.242C8.3855 17.1653 9.58269 19.6865 11.7183 21.2567C12.189 21.6027 12.5916 22.1188 12.7459 22.7736C12.8724 23.311 13.0173 23.9658 13.1608 24.6597H21.8394C21.9829 23.9658 22.1277 23.311 22.2542 22.7736C22.4085 22.1188 22.8112 21.6027 23.2819 21.2567C25.4175 19.6865 26.6147 17.1653 26.6147 14.242C26.6147 9.43144 22.5692 5.46875 17.5001 5.46875ZM21.4211 26.8472H13.579C13.74 27.777 13.8664 28.6576 13.9046 29.2898C13.9449 29.9553 14.4423 30.5518 15.1758 30.7103L15.4616 30.7721C16.8039 31.0621 18.1963 31.0621 19.5385 30.7721L19.8244 30.7103C20.5578 30.5518 21.0554 29.9553 21.0956 29.2898C21.1338 28.6576 21.2601 27.777 21.4211 26.8472ZM6.198 14.242C6.198 8.15377 11.2935 3.28125 17.5001 3.28125C23.7067 3.28125 28.8022 8.15377 28.8022 14.242C28.8022 17.7768 27.3386 20.9892 24.5777 23.0191C24.4517 23.1117 24.399 23.2091 24.3836 23.2751C24.2109 24.0081 24.0006 24.9783 23.8088 25.9626C23.5422 27.3309 23.3252 28.658 23.279 29.4219C23.1769 31.1109 21.9343 32.4924 20.2864 32.8485L20.0005 32.9102C18.3538 33.266 16.6464 33.266 14.9996 32.9102L14.7138 32.8485C13.0659 32.4924 11.8233 31.1109 11.7211 29.4219C11.6749 28.658 11.4579 27.3309 11.1913 25.9626C10.9996 24.9783 10.7893 24.0081 10.6166 23.2751C10.6011 23.2091 10.5484 23.1117 10.4225 23.0191C7.66154 20.9892 6.198 17.7768 6.198 14.242Z" fill="black"/>
    <path d="M16.4884 10.215H18.4834L18.2884 17.775H16.6834L16.4884 10.215ZM16.4284 20.1C16.4284 19.8 16.5234 19.555 16.7134 19.365C16.9134 19.165 17.1784 19.065 17.5084 19.065C17.8284 19.065 18.0834 19.165 18.2734 19.365C18.4734 19.555 18.5734 19.8 18.5734 20.1C18.5734 20.39 18.4734 20.63 18.2734 20.82C18.0834 21.01 17.8284 21.105 17.5084 21.105C17.1784 21.105 16.9134 21.01 16.7134 20.82C16.5234 20.63 16.4284 20.39 16.4284 20.1Z" fill="black"/>
    </svg>
    